<svg width="21" height="21" viewBox="0 0 21 21" fill="none" xmlns="http://www.w3.org/2000/svg">
<path d="M3.19645 15.0702C2.07826 13.1852 1.68666 10.9568 2.09518 8.80354C2.50371 6.65024 3.68425 4.72014 5.41514 3.37567C7.14603 2.0312 9.30819 1.36485 11.4956 1.50173C13.683 1.63861 15.7453 2.56932 17.295 4.11909C18.8448 5.66885 19.7755 7.73107 19.9124 9.91849C20.0493 12.1059 19.383 14.2681 18.0385 15.999C16.694 17.7299 14.7639 18.9104 12.6107 19.319C10.4574 19.7275 8.22899 19.3359 6.34399 18.2177L6.34401 18.2176L3.23558 19.1057C3.10697 19.1425 2.97088 19.1442 2.84141 19.1106C2.71193 19.0771 2.59378 19.0095 2.4992 18.9149C2.40463 18.8204 2.33706 18.7022 2.30351 18.5727C2.26996 18.4433 2.27165 18.3072 2.30839 18.1786L3.19651 15.0701L3.19645 15.0702Z" stroke="#514EFC" stroke-width="2" stroke-linecap="round" stroke-linejoin="round"/>
</svg>
