<svg width="20" height="20" viewBox="0 0 20 20" fill="none" xmlns="http://www.w3.org/2000/svg">
<path d="M6.60715 10.1781C7.38512 11.7686 8.67437 13.052 10.2684 13.8227C10.385 13.8779 10.514 13.9019 10.6427 13.8921C10.7714 13.8824 10.8954 13.8393 11.0023 13.7671L13.3494 12.202C13.4532 12.1328 13.5727 12.0906 13.6969 12.0792C13.8212 12.0678 13.9463 12.0875 14.061 12.1367L18.4519 14.0185C18.6011 14.0819 18.7256 14.192 18.8068 14.3323C18.8879 14.4726 18.9213 14.6355 18.9018 14.7963C18.763 15.8823 18.2331 16.8805 17.4114 17.604C16.5896 18.3274 15.5323 18.7266 14.4375 18.7266C11.056 18.7266 7.81298 17.3833 5.42189 14.9922C3.0308 12.6011 1.6875 9.35813 1.6875 5.97662C1.68756 4.88179 2.08668 3.82451 2.81014 3.00276C3.5336 2.18101 4.53178 1.65113 5.61778 1.51234C5.77867 1.49287 5.94153 1.52622 6.08182 1.60735C6.22211 1.68848 6.33223 1.81301 6.3956 1.96218L8.27908 6.35698C8.3278 6.47065 8.34765 6.59461 8.33686 6.71781C8.32608 6.84102 8.285 6.95964 8.21727 7.06313L6.65761 9.44622C6.58662 9.55343 6.54466 9.67721 6.53581 9.80548C6.52697 9.93375 6.55155 10.0621 6.60715 10.1781V10.1781Z" stroke="#514EFC" stroke-width="2" stroke-linecap="round" stroke-linejoin="round"/>
</svg>
